<?xml version="1.0" encoding="UTF-8" standalone="no"?>
<svg
   viewBox="0 0 1024 1024"
   width="1024"
   height="1024"
   version="1.1"
   id="svg8"
   sodipodi:docname="eigendeck_proxy_icon_grouped_taller.svg"
   inkscape:version="1.4 (e7c3feb1, 2024-10-09)"
   inkscape:export-filename="eigendeck_proxy_icon_grouped_taller.png"
   inkscape:export-xdpi="218"
   inkscape:export-ydpi="218"
   xmlns:inkscape="http://www.inkscape.org/namespaces/inkscape"
   xmlns:sodipodi="http://sodipodi.sourceforge.net/DTD/sodipodi-0.dtd"
   xmlns="http://www.w3.org/2000/svg"
   xmlns:svg="http://www.w3.org/2000/svg">
  <sodipodi:namedview
     id="namedview8"
     pagecolor="#ffffff"
     bordercolor="#666666"
     borderopacity="1.0"
     inkscape:showpageshadow="2"
     inkscape:pageopacity="0.0"
     inkscape:pagecheckerboard="0"
     inkscape:deskcolor="#d1d1d1"
     inkscape:zoom="0.52"
     inkscape:cx="396.15385"
     inkscape:cy="316.34615"
     inkscape:window-width="1200"
     inkscape:window-height="1186"
     inkscape:window-x="0"
     inkscape:window-y="25"
     inkscape:window-maximized="0"
     inkscape:current-layer="svg8" />
  <title
     id="title1">Eigendeck proxy icon, grouped lambda mark, taller proportions</title>
  <defs
     id="defs7">
    <linearGradient
       id="paper"
       x1="180"
       y1="80"
       x2="860"
       y2="980"
       gradientUnits="userSpaceOnUse">
      <stop
         offset="0"
         stop-color="#F7EED6"
         id="stop1" />
      <stop
         offset="0.62"
         stop-color="#E8D9AE"
         id="stop2" />
      <stop
         offset="1"
         stop-color="#D6C085"
         id="stop3" />
    </linearGradient>
    <linearGradient
       id="folderEdge"
       x1="150"
       y1="20"
       x2="970"
       y2="1000"
       gradientUnits="userSpaceOnUse">
      <stop
         offset="0"
         stop-color="#E4D098"
         id="stop4" />
      <stop
         offset="1"
         stop-color="#BBA263"
         id="stop5" />
    </linearGradient>
    <linearGradient
       id="badge"
       x1="64"
       y1="520"
       x2="640"
       y2="1000"
       gradientUnits="userSpaceOnUse"
       gradientTransform="translate(-15.384615,19.230769)">
      <stop
         offset="0"
         stop-color="#61A9D7"
         id="stop6" />
      <stop
         offset="1"
         stop-color="#2E6899"
         id="stop7" />
    </linearGradient>
  </defs>
  <path
     id="folder-outer"
     d="m 210,24 h 528 l 210,210 v 652 q 0,110 -110,110 H 196 Q 86,996 86,886 V 146 Q 86,24 210,24 Z"
     fill="url(#folderEdge)"
     stroke="#303030"
     stroke-width="18"
     stroke-linejoin="round"
     style="fill:url(#folderEdge)" />
  <path
     id="folder-face"
     d="m 202,76 h 506 l 188,188 v 600 q 0,70 -70,70 H 204 q -70,0 -70,-70 V 154 q 0,-78 68,-78 z"
     fill="url(#paper)"
     style="fill:url(#paper)" />
  <path
     id="dogear-seam"
     d="M 708,76 896,264"
     fill="none"
     stroke="#303030"
     stroke-width="18"
     stroke-linecap="round" />
  <g
     id="embossed-lambda"
     opacity="0.72"
     transform="translate(-40.384615,-61.538462)">
    <path
       id="embossed-lambda-highlight"
       d="M 392,630 536,216 676,630"
       fill="none"
       stroke="#fff8e6"
       stroke-width="24"
       stroke-linejoin="miter" />
    <path
       id="embossed-lambda-shadow"
       d="M 394,634 536,222 676,634"
       fill="none"
       stroke="#9d8550"
       stroke-width="10"
       stroke-linejoin="miter" />
    <path
       id="embossed-underscore-highlight"
       d="m 646,632 h 98"
       fill="none"
       stroke="#fff8e6"
       stroke-width="24" />
    <path
       id="embossed-underscore-shadow"
       d="m 648,636 h 96"
       fill="none"
       stroke="#9d8550"
       stroke-width="10" />
  </g>
  <rect
     id="badge-background"
     x="8.6153851"
     y="509.23077"
     width="636"
     height="510"
     rx="108"
     ry="108"
     fill="url(#badge)"
     style="fill:url(#badge)" />
  <g
     id="lambda-mark"
     transform="matrix(456,0,0,-456,37,930.53846)">
    <path
       d="M 0.24125,0.49812 0.21094,0.58016 Q 0.19734,0.61766 0.17891,0.63125 0.16062,0.645 0.11469,0.645 H 0.06 V 0.75984 H 0.16109 Q 0.25,0.75984 0.29813,0.72219 0.34625,0.68453 0.37938,0.59578 L 0.60297,0 H 0.42828 L 0.31938,0.28719 0.20453,0 H 0.02984 Z"
       fill="#ffffff"
       stroke="#0b0b0b"
       stroke-width="0.06"
       stroke-linejoin="round"
       paint-order="stroke fill"
       id="path7" />
  </g>
  <g
     id="underscore-mark"
     transform="matrix(456,0,0,-456,81.23077,822.84615)">
    <path
       d="m 1.13281,-0.14313 v -0.09265 h -0.5 v 0.09265 z"
       fill="#ffffff"
       stroke="#0b0b0b"
       stroke-width="0.06"
       stroke-linejoin="round"
       paint-order="stroke fill"
       id="path8" />
  </g>
  <path
     id="path9"
     d="M 708,76 896,264"
     fill="none"
     stroke="#303030"
     stroke-width="18"
     stroke-linecap="round" />
</svg>
